<svg xmlns="http://www.w3.org/2000/svg" viewBox="0 0 240 270" role="img" aria-labelledby="title"><title id="title">Orange rover engineer with a communications headset and a little rolling exploration rover</title>
<style>
.crew{animation:bob 1.3s ease-in-out infinite;transform-origin:115px 220px}
.foot-a{animation:step 1.3s ease-in-out infinite;transform-origin:92px 192px}.foot-b{animation:step 1.3s ease-in-out -.65s infinite;transform-origin:125px 192px}
.float,.satellite{animation:float 2.8s ease-in-out infinite}.satellite{transform-origin:186px 97px}
.signal,.pulse{animation:pulse 1.8s ease-in-out infinite}.pulse{transform-origin:183px 98px}
.scan{animation:scan 3s ease-in-out infinite}.needle{animation:needle 3s ease-in-out infinite;transform-origin:180px 169px}
.heartbeat{stroke-dasharray:65;animation:trace 1.8s linear infinite}.radar{animation:spin 4s linear infinite;transform-origin:179px 165px}
.rover{animation:roll 2s ease-in-out infinite}.drops{animation:rain 1.2s linear infinite}
@keyframes bob{50%{transform:translateY(-5px) rotate(-2deg)}}@keyframes step{50%{transform:rotate(13deg) translateY(-3px)}}
@keyframes float{50%{transform:translateY(-9px) rotate(4deg)}}@keyframes pulse{50%{opacity:.55;transform:scale(.96)}}
@keyframes scan{50%{transform:translate(-7px,7px)}}@keyframes needle{50%{transform:rotate(-65deg)}}
@keyframes trace{0%{stroke-dashoffset:65}70%,100%{stroke-dashoffset:0}}@keyframes spin{to{transform:rotate(360deg)}}
@keyframes roll{50%{transform:translateX(-6px) rotate(-2deg)}}@keyframes rain{0%{transform:translateY(-4px);opacity:0}30%{opacity:1}100%{transform:translateY(12px);opacity:0}}
@media(prefers-reduced-motion:reduce){*{animation:none!important}}
</style>
<ellipse cx="119" cy="239" rx="68" ry="11" fill="#f28a3b" opacity=".13"/>
<g class="crew" stroke="#080f15" stroke-width="6" stroke-linecap="round" stroke-linejoin="round">
<rect x="131" y="113" width="32" height="76" rx="12" fill="#a24829"/><path d="M143 122h10v48h-10" fill="#f28a3b" stroke="none"/>
<path class="foot-b" d="M112 182h29v39q-9 7-28 2z" fill="#a24829"/>
<path class="foot-a" d="M77 181h30v43q-11 12-30 2z" fill="#a24829"/>
<path d="M73 112q-2-39 34-39 39 0 40 40v49q0 39-38 39-35 0-36-29z" fill="#a24829"/>
<path d="M79 108q-1-28 27-29 30 0 33 31v38q0 34-31 35-22 0-29-17z" fill="#f28a3b" stroke="none"/>
<path d="M82 154h47v32H82z" fill="#d8dbbd"/><path d="M91 159v23m27-23v23" stroke="#4d5c65" stroke-width="4"/><rect x="99" y="164" width="12" height="10" fill="#7dcdd7" stroke-width="2"/>
<path d="M68 102q15-12 52-7 16 3 15 19-1 20-23 21H79q-19-1-19-16 0-10 8-17z" fill="#496a7b"/>
<path d="M69 106q17-9 48-6 10 1 10 10-3 12-37 11-23 0-21-15z" fill="#8fcbdc" stroke="none"/>
<path d="M78 105q10-4 28-2" fill="none" stroke="#effcff" stroke-width="7"/>
<path d="M70 94V83q5-24 37-24t37 25v29" fill="none" stroke="#d5ddcb" stroke-width="7"/><rect x="138" y="99" width="19" height="25" rx="6" fill="#344b54"/><path d="m146 97 5-27" stroke="#d5ddcb" stroke-width="3"/><circle class="signal" cx="152" cy="66" r="5" fill="#93edc4"/><g class="rover"><path d="m149 178 12-18h39l11 18v21h-62z" fill="#dcc9a1"/><path d="M179 160v-23h14v13h-14" fill="#6bcfd9" stroke-width="4"/><path d="m163 163 7-15h-19" fill="none" stroke="#dcc9a1" stroke-width="4"/><circle cx="160" cy="198" r="10" fill="#34464f"/><circle cx="198" cy="198" r="10" fill="#34464f"/><path class="wheels" d="M155 198h10m-5-5v10m33-5h10m-5-5v10" stroke="#8bacae" stroke-width="3"/></g><path class="signal" d="M175 116q15-12 30 0m-23 6q8-6 16 0" fill="none" stroke="#a2e9df" stroke-width="3"/>
<path d="M146 167q-11-5-13 5t13 13l10-4v-10z" fill="#f28a3b" stroke-width="5"/>
</g></svg>